<svg width="18" height="5" viewBox="0 0 18 5" fill="none" xmlns="http://www.w3.org/2000/svg">
<path d="M0.666687 2.50001C0.666687 2.17038 0.764435 1.84814 0.947571 1.57406C1.13071 1.29998 1.391 1.08636 1.69555 0.960212C2.00009 0.834066 2.3352 0.80106 2.6585 0.865369C2.98181 0.929678 3.27878 1.08841 3.51187 1.3215C3.74495 1.55459 3.90369 1.85156 3.968 2.17486C4.0323 2.49816 3.9993 2.83327 3.87315 3.13782C3.74701 3.44236 3.53339 3.70266 3.2593 3.88579C2.98522 4.06893 2.66299 4.16668 2.33335 4.16668C1.89133 4.16668 1.4674 3.99108 1.15484 3.67852C0.842282 3.36596 0.666687 2.94204 0.666687 2.50001ZM9.00002 4.16668C9.32966 4.16668 9.65189 4.06893 9.92597 3.88579C10.2001 3.70266 10.4137 3.44236 10.5398 3.13782C10.666 2.83327 10.699 2.49816 10.6347 2.17486C10.5704 1.85156 10.4116 1.55459 10.1785 1.3215C9.94544 1.08841 9.64847 0.929678 9.32517 0.865369C9.00187 0.80106 8.66676 0.834066 8.36222 0.960212C8.05767 1.08636 7.79737 1.29998 7.61424 1.57406C7.4311 1.84814 7.33335 2.17038 7.33335 2.50001C7.33335 2.94204 7.50895 3.36596 7.82151 3.67852C8.13407 3.99108 8.55799 4.16668 9.00002 4.16668ZM15.6667 0.833344C15.3371 0.833344 15.0148 0.931093 14.7407 1.11423C14.4667 1.29736 14.253 1.55766 14.1269 1.86221C14.0007 2.16675 13.9677 2.50186 14.032 2.82516C14.0964 3.14846 14.2551 3.44544 14.4882 3.67852C14.7213 3.91161 15.0182 4.07035 15.3415 4.13465C15.6648 4.19896 16 4.16596 16.3045 4.03981C16.609 3.91367 16.8693 3.70004 17.0525 3.42596C17.2356 3.15188 17.3334 2.82965 17.3334 2.50001C17.3334 2.05798 17.1578 1.63406 16.8452 1.3215C16.5326 1.00894 16.1087 0.833344 15.6667 0.833344Z" fill="#6B6F77"/>
</svg>
