<svg width="23" height="24" viewBox="0 0 23 24" fill="none" xmlns="http://www.w3.org/2000/svg">
<rect width="23" height="23" transform="translate(0 0.5)" fill="none"/>
<path d="M11.8779 17.688C11.9943 17.6401 12.1001 17.5698 12.1893 17.481L19.856 9.81432C20.0306 9.63357 20.1271 9.39149 20.125 9.14022C20.1228 8.88895 20.022 8.64859 19.8443 8.47091C19.6666 8.29322 19.4263 8.19244 19.175 8.19025C18.9237 8.18807 18.6816 8.28466 18.5009 8.45923L12.4701 14.49L11.6532 15.3069C11.5751 15.385 11.4485 15.385 11.3704 15.3069L10.5534 14.49L4.52265 8.45923C4.43425 8.3677 4.3285 8.29469 4.21158 8.24447C4.09466 8.19424 3.96891 8.16781 3.84166 8.1667C3.71441 8.1656 3.58822 8.18984 3.47044 8.23803C3.35267 8.28621 3.24567 8.35737 3.15569 8.44735C3.06571 8.53733 2.99455 8.64433 2.94636 8.76211C2.89818 8.87989 2.87393 9.00608 2.87504 9.13333C2.87614 9.26057 2.90258 9.38632 2.9528 9.50325C3.00303 9.62017 3.07604 9.72591 3.16757 9.81432L10.8342 17.481C10.9235 17.5698 11.0293 17.6401 11.1457 17.688C11.2616 17.7367 11.3861 17.7618 11.5118 17.7618C11.6375 17.7618 11.762 17.7367 11.8779 17.688Z" fill="#3A3F4A"/>
</svg>
