<svg width="17" height="21" viewBox="0 0 17 21" fill="none" xmlns="http://www.w3.org/2000/svg">
<path d="M16.368 8.73251C16.3708 7.69939 16.17 6.67584 15.7772 5.7203C15.3844 4.76476 14.8072 3.89595 14.0786 3.16347C12.6072 1.68415 10.6084 0.849958 8.52187 0.844388C6.43538 0.838819 4.43213 1.66233 2.95282 3.13377C1.47351 4.6052 0.639317 6.60402 0.633747 8.69051C0.61527 11.1145 1.31892 13.489 2.65503 15.5116C3.99113 17.5341 5.89918 19.113 8.136 20.0471C8.25034 20.0989 8.37448 20.1255 8.5 20.125C8.62643 20.1252 8.75144 20.0984 8.86662 20.0463C11.0966 19.115 13 17.5427 14.3354 15.5285C15.6708 13.5144 16.3783 11.1491 16.368 8.73251ZM8.5 18.2875C6.65544 17.4754 5.09126 16.1375 4.00308 14.4411C2.9149 12.7448 2.35103 10.7652 2.382 8.75001C2.382 7.94659 2.54024 7.15103 2.8477 6.40876C3.15516 5.66649 3.60581 4.99204 4.17392 4.42393C4.74203 3.85583 5.41647 3.40518 6.15874 3.09772C6.90101 2.79026 7.69657 2.63201 8.5 2.63201C9.30342 2.63201 10.099 2.79026 10.8413 3.09772C11.5835 3.40518 12.258 3.85583 12.8261 4.42393C13.3942 4.99204 13.8448 5.66649 14.1523 6.40876C14.4598 7.15103 14.618 7.94659 14.618 8.75001C14.618 8.76839 14.618 8.78939 14.618 8.80689C14.6392 10.8127 14.0707 12.7806 12.983 14.4661C11.8953 16.1516 10.3364 17.4804 8.5 18.2875ZM10.25 8.75001C10.25 9.09613 10.1474 9.43447 9.95507 9.72226C9.76278 10.01 9.48946 10.2343 9.16969 10.3668C8.84992 10.4993 8.49806 10.5339 8.15859 10.4664C7.81912 10.3989 7.5073 10.2322 7.26256 9.98745C7.01782 9.74271 6.85115 9.43089 6.78362 9.09142C6.7161 8.75196 6.75075 8.40009 6.88321 8.08032C7.01566 7.76055 7.23996 7.48723 7.52775 7.29494C7.81554 7.10265 8.15388 7.00001 8.5 7.00001C8.96413 7.00001 9.40924 7.18439 9.73743 7.51258C10.0656 7.84077 10.25 8.28588 10.25 8.75001Z" fill="#535761"/>
</svg>
